<?xml version="1.0" standalone="no"?>
<!DOCTYPE svg PUBLIC "-//W3C//DTD SVG 20010904//EN"
 "http://www.w3.org/TR/2001/REC-SVG-20010904/DTD/svg10.dtd">
<svg version="1.0" xmlns="http://www.w3.org/2000/svg"
 width="233.000000pt" height="72.000000pt" viewBox="0 0 233.000000 72.000000"
 preserveAspectRatio="xMidYMid meet">
<metadata>
Created by potrace 1.10, written by Peter Selinger 2001-2011
</metadata>
<g transform="translate(0.000000,72.000000) scale(0.100000,-0.100000)"
fill="#000000" stroke="none">
<path d="M376 675 c-21 -7 -52 -26 -68 -42 -58 -55 -63 -73 -69 -268 -6 -195
-13 -227 -65 -279 -40 -39 -96 -66 -139 -66 -19 0 -35 -4 -35 -10 0 -5 22 -10
48 -10 80 0 158 61 197 153 10 25 15 81 15 196 2 155 3 164 29 214 20 40 37
57 71 75 l44 22 758 0 c809 0 798 1 851 -48 44 -40 51 -70 58 -257 6 -196 13
-225 67 -282 48 -51 91 -73 145 -73 26 0 47 5 47 10 0 6 -14 10 -30 10 -41 0
-99 25 -133 58 -57 53 -61 72 -67 267 -5 169 -7 184 -31 230 -18 35 -39 59
-74 80 l-48 30 -766 2 c-632 2 -773 0 -805 -12z"/>
<path d="M502 489 c-46 -13 -70 -64 -51 -105 11 -23 28 -34 79 -51 36 -12 69
-29 75 -37 16 -25 -7 -51 -48 -54 -30 -3 -39 2 -62 32 -29 38 -55 39 -55 1 0
-51 76 -92 147 -79 38 7 83 55 83 88 0 37 -37 74 -83 86 -73 19 -89 28 -85 53
2 17 10 23 39 25 29 2 41 -2 57 -22 22 -29 50 -34 58 -12 9 23 -15 57 -51 72
-39 16 -56 16 -103 3z"/>
<path d="M1847 494 c-4 -4 -7 -32 -7 -62 0 -53 -1 -54 -18 -39 -24 22 -84 22
-112 -1 -28 -22 -38 -98 -20 -142 23 -56 87 -72 131 -33 15 12 17 11 22 -7 4
-14 12 -21 24 -18 16 3 18 16 18 153 0 127 -2 150 -15 153 -9 1 -19 0 -23 -4z
m-16 -161 c19 -52 -23 -110 -68 -93 -27 11 -39 62 -23 100 20 48 71 44 91 -7z"/>
<path d="M790 411 c-56 -13 -80 -46 -80 -111 0 -53 23 -87 70 -101 46 -14 105
2 121 33 18 33 -4 45 -37 19 -33 -26 -66 -27 -87 -3 -30 33 -21 42 42 42 72 0
91 6 91 31 0 59 -59 103 -120 90z m52 -48 c33 -29 22 -43 -32 -43 -54 0 -62
10 -33 42 20 22 41 23 65 1z"/>
<path d="M1023 408 c-46 -12 -73 -51 -73 -105 0 -55 22 -89 66 -103 60 -20
134 14 134 60 0 28 -28 25 -56 -5 -28 -30 -47 -32 -74 -5 -24 24 -26 67 -4 98
19 28 51 28 80 1 24 -22 54 -20 54 4 0 37 -74 69 -127 55z"/>
<path d="M1451 407 c-18 -18 -15 -192 4 -207 29 -24 45 5 45 80 0 74 12 94 52
88 21 -3 23 -8 26 -80 2 -54 7 -80 18 -89 14 -11 18 -10 30 6 25 34 12 178
-18 196 -22 14 -80 10 -100 -8 -16 -14 -18 -14 -18 -1 0 20 -24 30 -39 15z"/>
<path d="M1219 381 c-51 -52 -36 -146 28 -176 76 -36 153 15 153 102 0 36 -6
50 -29 74 -24 24 -38 29 -76 29 -38 0 -52 -5 -76 -29z m121 -41 c21 -51 -6
-110 -49 -110 -23 0 -51 41 -51 73 0 74 74 101 100 37z"/>
</g>
</svg>
